<mxfile host="65bd71144e">
    <diagram id="sHOo9zWkSf5vB0u1PBQC" name="Page-1">
        <mxGraphModel dx="818" dy="645" grid="1" gridSize="10" guides="1" tooltips="1" connect="1" arrows="1" fold="1" page="1" pageScale="1" pageWidth="850" pageHeight="1100" math="0" shadow="0">
            <root>
                <mxCell id="0"/>
                <mxCell id="1" parent="0"/>
                <mxCell id="2" value="" style="whiteSpace=wrap;html=1;" parent="1" vertex="1">
                    <mxGeometry x="25" y="150" width="670" height="340" as="geometry"/>
                </mxCell>
                <mxCell id="3" style="edgeStyle=none;html=1;exitX=1;exitY=0.5;exitDx=0;exitDy=0;" parent="1" source="4" edge="1">
                    <mxGeometry relative="1" as="geometry">
                        <mxPoint x="660" y="240" as="targetPoint"/>
                        <Array as="points"/>
                    </mxGeometry>
                </mxCell>
                <mxCell id="4" value="&lt;div&gt;&amp;nbsp; &amp;nbsp; &amp;nbsp; &amp;nbsp; &amp;nbsp; &amp;nbsp;&lt;/div&gt;G(s) = (0.275)/(22.68*s+1)&lt;div&gt;&lt;br&gt;&lt;/div&gt;" style="rounded=1;whiteSpace=wrap;html=1;" parent="1" vertex="1">
                    <mxGeometry x="425" y="210" width="120" height="60" as="geometry"/>
                </mxCell>
                <mxCell id="5" style="edgeStyle=none;html=1;exitX=1;exitY=0.5;exitDx=0;exitDy=0;entryX=0;entryY=0.5;entryDx=0;entryDy=0;" parent="1" source="6" target="4" edge="1">
                    <mxGeometry relative="1" as="geometry">
                        <mxPoint x="410" y="240" as="targetPoint"/>
                    </mxGeometry>
                </mxCell>
                <mxCell id="6" value="1" style="rounded=1;whiteSpace=wrap;html=1;" parent="1" vertex="1">
                    <mxGeometry x="330" y="220" width="60" height="40" as="geometry"/>
                </mxCell>
                <mxCell id="7" value="" style="edgeStyle=none;html=1;entryX=1;entryY=0.5;entryDx=0;entryDy=0;" parent="1" target="10" edge="1">
                    <mxGeometry relative="1" as="geometry">
                        <mxPoint x="590" y="240" as="sourcePoint"/>
                        <mxPoint x="470" y="390" as="targetPoint"/>
                        <Array as="points">
                            <mxPoint x="590" y="320"/>
                        </Array>
                    </mxGeometry>
                </mxCell>
                <mxCell id="8" style="edgeStyle=none;html=1;entryX=0.5;entryY=1;entryDx=0;entryDy=0;exitX=0;exitY=0.5;exitDx=0;exitDy=0;" parent="1" source="26" target="11" edge="1">
                    <mxGeometry relative="1" as="geometry">
                        <Array as="points">
                            <mxPoint x="135" y="320"/>
                        </Array>
                        <mxPoint x="270" y="320" as="sourcePoint"/>
                    </mxGeometry>
                </mxCell>
                <mxCell id="9" style="edgeStyle=none;html=1;exitX=0;exitY=0.5;exitDx=0;exitDy=0;entryX=1;entryY=0.5;entryDx=0;entryDy=0;" parent="1" source="10" target="26" edge="1">
                    <mxGeometry relative="1" as="geometry"/>
                </mxCell>
                <mxCell id="10" value="40e-6" style="rounded=1;whiteSpace=wrap;html=1;" parent="1" vertex="1">
                    <mxGeometry x="440" y="300" width="60" height="40" as="geometry"/>
                </mxCell>
                <mxCell id="28" style="edgeStyle=none;html=1;exitX=1;exitY=0.5;exitDx=0;exitDy=0;entryX=0;entryY=0.5;entryDx=0;entryDy=0;" parent="1" source="11" target="27" edge="1">
                    <mxGeometry relative="1" as="geometry"/>
                </mxCell>
                <mxCell id="13" value="" style="edgeStyle=none;orthogonalLoop=1;jettySize=auto;html=1;entryX=0;entryY=0.5;entryDx=0;entryDy=0;" parent="1" target="11" edge="1">
                    <mxGeometry width="100" relative="1" as="geometry">
                        <mxPoint x="40" y="240" as="sourcePoint"/>
                        <mxPoint x="-15" y="237.5" as="targetPoint"/>
                        <Array as="points"/>
                    </mxGeometry>
                </mxCell>
                <mxCell id="14" value="Entrada" style="text;html=1;align=center;verticalAlign=middle;resizable=0;points=[];autosize=1;strokeColor=none;fillColor=none;" parent="1" vertex="1">
                    <mxGeometry x="40" y="240" width="70" height="30" as="geometry"/>
                </mxCell>
                <mxCell id="15" value="SetPoint [ºC]" style="text;html=1;align=center;verticalAlign=middle;resizable=0;points=[];autosize=1;strokeColor=none;fillColor=none;" parent="1" vertex="1">
                    <mxGeometry x="20" y="210" width="90" height="30" as="geometry"/>
                </mxCell>
                <mxCell id="18" value="Salida" style="text;html=1;align=center;verticalAlign=middle;resizable=0;points=[];autosize=1;strokeColor=none;fillColor=none;" parent="1" vertex="1">
                    <mxGeometry x="600" y="240" width="60" height="30" as="geometry"/>
                </mxCell>
                <mxCell id="19" value="&lt;img alt=&quot;&quot; src=&quot;data:image/png;base64,iVBORw0KGgoAAAANSUhEUgAAAU4AAAA7CAYAAAAUy2OvAAAAAXNSR0IArs4c6QAAAARnQU1BAACxjwv8YQUAAAAJcEhZcwAADsMAAA7DAcdvqGQAAAjASURBVHhe7d09cuJKFwbgV99aNAQuVqBeATOJI1IyKWQSZw7JSFohzpwSORlpBZoVUARu7aW/AIFarZ9WS9hT136fKqrGavpHR3DoI19zA621BhERjfY/+wAREQ1j4iQi8sTESUTkiYmTiMgTEycRkScmTiIiT0ycRESemDipVubIS/sgEdmYOCtlmkCIAEEgIFK/7FGWOfKqf3ffEnkiEAQBgiCASHKrPUciLm1BIJB0jgGUeVqtMUAgUnQ/a6ocyWaH3SaBvbqx6/swZQpRxe7y6FrjkOH4u6/fPz7/2eauf27/L0iT1lmsI6kaP8eZ+YSR7HEqSkY6No4rGTXGl1Gk46xqV6r6uW7XWmslYx3LTKv28HdwmVOq6hwiqc1pxqxvlJ74OCmpo0kTXrjif9Ozvrud/1w963OZu/65/b8i7jgB5G8nrH+F9YEfDzi9+e1pnBbG+ABO7/Wn9rYocFhV7WGIX+v6ecBlx7U/P+KwXSFsDjNSibSx4xIQIr215skG5+cC2xDA6oDX9REbY1fmXN9/wUD8Xeaf/3D8P9rc9c/t/xUxcfY5vdtHJgu3z8BOXEpBkWB/XuN125MByxSb4xpPK+OYOuOE97pcEonXvcgy3eD48AylNbTWeH1c4q/RvjoUOBjzhdsChXnA1LW+z/Dysy7VPc/fK/4uE87fFf9PNWH9DXP7fxX2FvQ7yuKqTL1SUkeRNA6M1FdKKdkobZSMm/PVDTqOYm1XQUpGGoAxttJSNsvpYZmOI2jg8oiiWF8rLy896xukpI6qee3H5HLPt3QfG/++63c15fy1nhf/e8Zv8vorc/t/IdxxAgD+4qysQ8uFdWC6fH/Ew4/653ABHP80t0xlmkDsF3gqDuj8MI8kitsuKcTifIQ1xIAVDsVlt6OVwusa+LnxKxWd6+sTblFUOy2dxYikuvxb68Yu10u4wNKjIhgTf5fJ5w/Mi/+d4jdv/fP7fzVMnABWTxIw7nnl+yOWj/bLo0Qy6Te6wI8H4Kzq8cv3E5b1T0gTgT2eUBxWCAGUqYD5i99w+wqJ30iu9WmZ4+20hnlbdkgqRN03DIEFEI3+YHCv76OlQkCk9YR5usNLa/3912c4/i7zz39e/Ocau/6++I3t/83YW9DvSsm4LqU6y7VMx4AG2qVKFrfLKDRKfaVlfCm3ATTLzJ5SrFWGKaPc8yn1tNYyinVszO/Vf+z6xnCVwr3s+HXdpui/Pu3+zWcMXr87nP+s+JumxG/0+nviN7r/9xJofpExEZEXlupERJ6YOImIPDFxEhF5YuIkIvLExElE5ImJk4jIExMnEZEnJk4iIk9MnEREnpg4iYg8MXESEfmy/3i97frH//bj+mUAbGe73cZ2tn+V9m78kg8iIk8s1YmIPDFxEhF5YuIkIvLExElE5ImJk4jIExMnEZEnJk4iIk9MnEREnpg4iYg8MXGayhx5aR+kT8P403/EqMRZljnyNIEQAUQ65ZVdIk8EgiBAEAQQSe7fniYQt/YUU1YxLEey2WG3SWDP/jnzDyjT29yXR3uNdvz81pcjEdexBZKOazxv/DGG4u9e38eaN39661s/7PdRWb2/gkC02q7KPK2eEyAQn/wanGnM+Q0Z7j/u/dkXvzHXp8X+4/VBWawjqeyjTkpGOjb6KRnp2PgL+jHtkawPZDKatI5+Ssso0lJV5xhJbY5+t/knxk8rqSMzILYs1oikVtehVaazgafbZBTpOKs6q0ssGtPNHN9tOP7O9Y01Mf5z55dR8wsjLq8nYx32urK4Nb6SsY5lVl+Df8Fe51h2v47zG+ToP+b9ORQ/5/XpMGrHeReLsPHj6d3K6APt4bZAsV012v2USBs7JgEh0ltrnmxwfi6wDQGsDnhdH7Exdr3z5/9Y5fsJ8fMW4TWEIfC2q8/PZVsUOKyqzmGIX+tm+9zx58bftb6PNnf+bXGA+er5c1zieVu/3vO3E9a/jNf/jwec3ox9d5lif37EYbuqr4GX4fh/NOf5Obj6O9+fjvi5rk+XT0mc4fYZ2IlLqS8S7M9rvBoLc7VflLct9e78jKLV3q9MNzg+PENpDa01Xh+X+Gu0rw4FDkbkwm2BwjwAzJr/Ll5+1qWESBr3AsPFEi+7FGWJqmzZ4eXvuaPkHaFMsTmu8WTGY+b494l/pWN9n2ru/GWK4/Kx8UbtdHqv/63OOOG9vl1gXX8XV/z/CfP8pmj1H3h/+sRv7PWxt6CD7C3zWEpaW+v4UpaNbTcppWXs3ko3ZTqO6u/ai6JYXysvb77zK6mj1nf9XR5e5Yqpo3RXMqrPL5Y6tsqPUVR/v3nj3yn+A+vrdc/4T5nfYt+G0lrrLK5uU1wpqaNIGj9eYl+/5pSWsnk7Y9iM+N8hfq7zc/Hq3/H+9Ilf1/Xp8imJs3Xi1jiu9pahwLkopZW83LObbOr8rvMaLdPx4Pyu9jYlYx3FWeeLqc1//JuJ8fdbX48Z8b/L/Fq17qdprXUWW0nI+mBUMmrFq/WeGWti/LWeHj/X+bl49+/64BkVv+7r0+WOpXqJJAg6f+P74wE4q3pvXL6fsPRoT4VActtbl8j3v/F3uTCeMazRPwyBBRBN7T9h/rlSISDSOqp5usOLNb8RPeTJDg/P20Z7//W53P/a4wnFYYUQQJkK2P9hg3v8fvPiP259H2fs/H3xNZR/OsvA1ZMEjHv6+f6I5WP9rHD7ConfdQzLHG+nNczbfkPmxX8+1/ld9MfP1d/1/hwdv57r08nOpF2yuL1NtzN4/RX0XRn7sn2+lQqtTwtHe7X9NttbHxYDZBTr2OgPn1JFz5//ZuIndjs+VpmR1eVUfxnWc316SrHGJRg1fr9Z8R+zvrGmxH/0/D3xNQyVgUrGt7E716iMctsnfnPjb5oSv4rz/BzxG+w/5v05In5D18fG/3UGEZGnO5bqRETfAxMnEZEnJk4iIk9MnEREnpg4iYg8MXESEXli4iQi8sTESUTkiYmTiMjT/wHaVivkTqYVGAAAAABJRU5ErkJggg==&quot;&gt;" style="rounded=1;whiteSpace=wrap;html=1;" parent="1" vertex="1">
                    <mxGeometry x="250" y="370" width="270" height="90" as="geometry"/>
                </mxCell>
                <mxCell id="20" style="edgeStyle=none;html=1;exitX=1;exitY=0.5;exitDx=0;exitDy=0;" parent="1" source="19" edge="1">
                    <mxGeometry relative="1" as="geometry">
                        <mxPoint x="580" y="415" as="targetPoint"/>
                        <mxPoint x="555" y="410" as="sourcePoint"/>
                    </mxGeometry>
                </mxCell>
                <mxCell id="21" value="" style="edgeStyle=none;orthogonalLoop=1;jettySize=auto;html=1;entryX=0;entryY=0.5;entryDx=0;entryDy=0;" parent="1" target="19" edge="1">
                    <mxGeometry width="100" relative="1" as="geometry">
                        <mxPoint x="210" y="415" as="sourcePoint"/>
                        <mxPoint x="215" y="410" as="targetPoint"/>
                        <Array as="points"/>
                    </mxGeometry>
                </mxCell>
                <mxCell id="22" value="Entrada" style="text;html=1;align=center;verticalAlign=middle;resizable=0;points=[];autosize=1;strokeColor=none;fillColor=none;" parent="1" vertex="1">
                    <mxGeometry x="150" y="420" width="70" height="30" as="geometry"/>
                </mxCell>
                <mxCell id="23" value="SetPoint [ºC]" style="text;html=1;align=center;verticalAlign=middle;resizable=0;points=[];autosize=1;strokeColor=none;fillColor=none;" parent="1" vertex="1">
                    <mxGeometry x="140" y="380" width="90" height="30" as="geometry"/>
                </mxCell>
                <mxCell id="24" value="Salida" style="text;html=1;align=center;verticalAlign=middle;resizable=0;points=[];autosize=1;strokeColor=none;fillColor=none;" parent="1" vertex="1">
                    <mxGeometry x="520" y="420" width="60" height="30" as="geometry"/>
                </mxCell>
                <mxCell id="25" value="Funcion de Transferencia a Lazo Cerrado (FTLC)" style="text;html=1;align=center;verticalAlign=middle;resizable=0;points=[];autosize=1;strokeColor=none;fillColor=none;fontStyle=1;fontSize=16;" parent="1" vertex="1">
                    <mxGeometry x="180" y="160" width="370" height="30" as="geometry"/>
                </mxCell>
                <mxCell id="26" value="H(s) = 417/(0.0318*s+1)" style="rounded=1;whiteSpace=wrap;html=1;" parent="1" vertex="1">
                    <mxGeometry x="240" y="290" width="140" height="60" as="geometry"/>
                </mxCell>
                <mxCell id="29" style="edgeStyle=none;html=1;exitX=1;exitY=0.5;exitDx=0;exitDy=0;entryX=0;entryY=0.5;entryDx=0;entryDy=0;" parent="1" source="27" target="6" edge="1">
                    <mxGeometry relative="1" as="geometry"/>
                </mxCell>
                <mxCell id="27" value="PI(s) = 8*(1+1/(2.61*s))" style="rounded=1;whiteSpace=wrap;html=1;" parent="1" vertex="1">
                    <mxGeometry x="180" y="220" width="130" height="40" as="geometry"/>
                </mxCell>
                <mxCell id="30" value="" style="group" vertex="1" connectable="0" parent="1">
                    <mxGeometry x="110" y="215" width="50" height="55" as="geometry"/>
                </mxCell>
                <mxCell id="11" value="" style="ellipse;whiteSpace=wrap;html=1;" parent="30" vertex="1">
                    <mxGeometry width="50" height="50" as="geometry"/>
                </mxCell>
                <mxCell id="16" value="+" style="text;html=1;align=center;verticalAlign=middle;resizable=0;points=[];autosize=1;strokeColor=none;fillColor=none;" parent="30" vertex="1">
                    <mxGeometry y="7.5" width="30" height="30" as="geometry"/>
                </mxCell>
                <mxCell id="17" value="-" style="text;html=1;align=center;verticalAlign=middle;resizable=0;points=[];autosize=1;strokeColor=none;fillColor=none;" parent="30" vertex="1">
                    <mxGeometry x="10" y="25" width="30" height="30" as="geometry"/>
                </mxCell>
            </root>
        </mxGraphModel>
    </diagram>
</mxfile>